<!-- login.svg -->
<?xml version="1.0" encoding="UTF-8"?>
<svg xmlns="http://www.w3.org/2000/svg"
     viewBox="0 0 512 512">

  <!-- Cerchio esterno: base (sempre pieno) -->
  <circle id="loginCircleBase"
          cx="256" cy="256" r="210"
          fill="none"
          stroke="currentColor"
          stroke-width="20"
          stroke-linecap="round"/>

  <!-- Cerchio esterno: segmento che può girare -->
  <circle id="loginCircle"
          cx="256" cy="256" r="210"
          fill="none"
          stroke="currentColor"
          stroke-width="20"
          stroke-linecap="round"
          stroke-dasharray="300 900"
          stroke-dashoffset="0"/>

  <!-- Omino sempre centrato -->
  <g id="loginUser"
     transform="translate(256,232) scale(0.60) translate(-256,-256)"
     fill="currentColor"
     stroke="none">
    <path d="M240.51 13.84 C254.98 11.92 269.82 12.69 283.98 16.23 C312.48 23.20 337.85 41.72 353.44 66.54
             C370.33 93.04 375.48 126.58 367.48 156.95 C363.33 173.03 355.62 188.18 345.06 201.01
             C329.03 220.65 306.32 234.80 281.55 240.31 C260.96 244.98 239.07 243.92 219.07 237.10
             C190.00 227.40 165.32 205.50 152.13 177.85 C138.41 149.60 137.11 115.67 148.53 86.42
             C155.90 67.29 168.53 50.25 184.63 37.58 C200.67 24.83 220.20 16.55 240.51 13.84 Z"/>
    <path d="M195.16 269.10 C200.77 268.81 206.38 268.78 212.00 268.80 C243.00 268.80 274.00 268.80 305.00 268.80
             C317.20 268.80 329.44 269.79 341.39 272.36 C373.90 279.05 404.17 295.94 427.10 319.91
             C455.72 349.42 472.64 389.89 473.46 431.00 C473.60 441.45 473.58 451.90 473.49 462.35
             C473.06 477.90 462.14 492.44 447.32 497.15 C441.44 499.21 435.14 499.26 428.99 499.19
             C314.33 499.18 199.67 499.19 85.01 499.19 C79.09 499.16 73.06 499.51 67.29 497.96
             C54.57 494.79 43.85 484.65 40.12 472.06 C37.97 465.59 38.45 458.71 38.41 452.01
             C38.44 443.68 38.28 435.35 38.62 427.03 C39.52 408.34 43.59 389.80 50.66 372.47
             C62.65 342.87 83.45 316.96 109.65 298.71 C134.68 281.16 164.65 270.80 195.16 269.10 Z"/>
  </g>

</svg>
