<svg width="1920pt" height="400pt" viewBox="0 0 1920 400" version="1.1" xmlns="http://www.w3.org/2000/svg">
<g id="#4283b9ff">
</g>
<g id="#ffffffff">
<path fill="#ffffff" opacity="1.00" d=" M 435.33 129.49 C 451.18 129.45 467.68 129.12 482.45 135.77 C 490.41 139.66 495.46 148.23 496.02 156.95 C 497.14 172.69 493.80 188.54 487.69 203.01 C 481.09 221.81 461.79 234.33 442.00 233.38 C 412.90 234.39 383.76 232.63 354.65 233.61 C 352.43 233.91 349.52 234.08 348.55 236.50 C 346.23 242.66 346.04 249.47 343.33 255.51 C 339.99 262.61 333.21 268.55 325.10 268.91 C 313.10 269.53 301.05 270.32 289.04 269.45 C 282.05 268.95 274.24 270.07 268.22 265.68 C 263.15 261.96 262.16 255.00 263.51 249.21 C 269.00 221.96 274.51 194.71 280.88 167.65 C 283.96 154.89 291.90 142.95 303.78 136.90 C 315.77 130.49 329.72 130.07 343.01 129.98 C 373.78 130.15 404.55 129.59 435.33 129.49 M 332.44 131.60 C 320.36 131.97 307.72 134.35 298.04 142.04 C 289.46 148.54 284.12 158.55 281.85 168.94 C 275.55 196.39 269.76 223.96 264.44 251.61 C 262.73 259.01 268.04 266.89 275.77 267.42 C 291.16 268.67 306.66 268.23 322.09 267.86 C 328.56 267.88 335.24 265.40 339.22 260.10 C 344.68 253.31 344.31 244.08 347.34 236.27 C 348.71 232.90 352.69 232.23 355.91 232.17 C 385.61 231.90 415.33 232.45 445.03 231.99 C 460.61 231.81 476.05 223.33 483.38 209.38 C 491.49 193.32 495.79 175.12 494.76 157.10 C 494.30 148.01 488.74 139.02 479.95 135.91 C 470.00 132.59 459.50 130.71 449.00 130.87 C 410.14 130.81 371.28 131.34 332.44 131.60 Z" />
<path fill="#ffffff" opacity="1.00" d=" M 1506.58 135.91 C 1518.77 129.88 1532.64 129.12 1546.00 129.18 C 1572.68 129.25 1599.37 129.08 1626.06 129.26 C 1633.74 129.75 1642.78 130.48 1647.89 137.05 C 1652.59 143.46 1652.10 151.79 1652.64 159.32 C 1653.80 189.90 1655.57 220.45 1657.04 251.01 C 1657.99 259.63 1650.82 268.05 1642.06 268.01 C 1625.04 268.46 1608.01 268.37 1590.99 268.28 C 1586.32 268.30 1581.27 266.43 1578.83 262.25 C 1574.09 253.37 1576.98 242.87 1575.68 233.28 C 1561.44 233.31 1547.21 233.58 1532.98 233.16 C 1529.79 232.94 1526.55 234.24 1524.86 237.04 C 1520.61 244.05 1517.99 251.92 1513.96 259.05 C 1510.29 265.72 1502.31 268.70 1495.01 268.41 C 1480.35 267.92 1465.69 268.34 1451.03 268.25 C 1445.21 268.33 1438.13 266.59 1435.76 260.62 C 1433.40 254.53 1437.02 248.63 1439.43 243.23 C 1451.66 218.11 1463.61 192.85 1475.94 167.77 C 1482.40 154.28 1492.74 142.13 1506.58 135.91 M 1488.18 151.16 C 1480.50 159.56 1476.14 170.20 1471.13 180.25 C 1460.39 202.47 1449.60 224.67 1438.98 246.94 C 1436.86 251.56 1434.73 257.41 1437.89 262.06 C 1441.00 266.51 1447.01 266.83 1451.95 266.96 C 1466.99 266.88 1482.03 266.82 1497.07 267.01 C 1503.52 267.18 1510.12 263.94 1513.16 258.09 C 1516.99 250.84 1520.09 243.19 1524.11 236.03 C 1526.26 232.22 1531.02 231.68 1534.98 231.86 C 1548.89 232.29 1562.81 231.70 1576.72 232.13 C 1577.79 240.34 1577.04 248.66 1578.03 256.87 C 1578.73 262.68 1584.12 267.14 1589.95 266.93 C 1607.79 266.89 1625.66 267.28 1643.49 266.62 C 1651.28 266.28 1656.56 258.57 1655.74 251.14 C 1653.98 218.07 1652.27 185.00 1650.91 151.92 C 1650.57 146.00 1649.61 139.21 1644.64 135.30 C 1639.32 131.36 1632.37 130.90 1625.98 130.79 C 1596.99 130.77 1568.00 130.80 1539.00 130.77 C 1520.25 130.12 1500.54 136.51 1488.18 151.16 Z" />
<path fill="#ffffff" opacity="1.00" d=" M 1133.54 131.47 C 1141.59 129.94 1149.83 129.94 1158.00 129.96 C 1204.00 129.97 1249.99 129.43 1295.99 129.92 C 1301.68 129.80 1308.28 131.12 1311.72 136.11 C 1314.61 141.84 1310.78 148.52 1306.40 152.33 C 1278.13 176.06 1249.56 199.43 1221.30 223.18 C 1217.09 226.94 1212.00 229.87 1208.98 234.78 C 1232.33 235.34 1255.71 234.71 1279.07 235.09 C 1285.07 235.18 1291.92 237.66 1294.20 243.73 C 1297.74 250.57 1294.27 259.00 1288.38 263.29 C 1281.91 267.87 1273.78 269.40 1265.99 269.40 C 1217.67 269.37 1169.34 269.40 1121.02 269.39 C 1114.27 269.30 1106.69 268.49 1101.72 263.43 C 1097.61 257.79 1101.87 250.45 1106.07 246.17 C 1135.96 221.77 1165.51 196.95 1195.18 172.28 C 1198.17 170.05 1200.99 167.53 1202.91 164.28 C 1180.26 163.64 1157.58 164.25 1134.92 163.96 C 1130.30 163.75 1125.48 162.93 1121.57 160.32 C 1116.73 156.44 1115.17 149.11 1117.88 143.54 C 1120.29 136.91 1126.92 132.88 1133.54 131.47 M 1123.49 137.52 C 1117.50 142.47 1115.39 152.87 1121.39 158.59 C 1128.01 163.93 1137.11 162.35 1145.00 162.63 C 1165.49 162.97 1186.08 161.79 1206.52 163.43 C 1202.27 168.27 1196.97 171.98 1192.14 176.19 C 1166.17 197.91 1140.13 219.53 1114.07 241.13 C 1109.45 244.87 1104.09 248.45 1102.05 254.34 C 1100.70 257.55 1101.03 261.78 1104.04 263.96 C 1109.44 267.99 1116.58 267.88 1123.01 268.11 C 1171.35 268.15 1219.69 268.13 1268.02 268.02 C 1277.61 267.83 1289.17 264.89 1293.24 255.17 C 1296.92 247.20 1291.09 236.75 1282.06 236.67 C 1256.12 235.89 1230.14 236.80 1204.19 236.20 C 1237.32 207.91 1271.20 180.51 1304.52 152.45 C 1308.70 149.03 1312.50 143.73 1311.20 138.07 C 1309.25 132.81 1303.06 131.29 1298.02 131.25 C 1248.67 130.79 1199.32 131.19 1149.97 131.36 C 1141.01 131.91 1130.73 131.28 1123.49 137.52 Z" />
<path fill="#ffffff" opacity="1.00" d=" M 563.43 131.66 C 572.20 130.16 581.13 130.66 589.99 130.67 C 627.66 130.84 665.32 130.54 702.99 130.84 C 712.03 130.67 721.64 133.24 728.00 140.00 C 735.51 147.03 738.09 158.19 735.97 168.07 C 731.71 190.42 727.37 212.78 721.70 234.83 C 716.94 253.42 699.23 267.59 680.01 268.08 C 637.02 269.28 594.00 268.94 551.00 269.41 C 537.62 269.10 521.58 265.01 515.23 251.94 C 510.66 243.25 511.66 233.03 513.65 223.77 C 517.77 204.08 521.59 184.30 526.72 164.84 C 531.44 147.96 545.96 134.33 563.43 131.66 M 568.32 132.32 C 550.18 133.29 533.53 146.02 528.50 163.57 C 522.68 184.56 518.65 206.01 514.33 227.35 C 512.19 237.82 512.74 250.24 520.88 258.12 C 528.68 265.26 539.70 267.66 549.99 268.06 C 590.00 267.89 630.00 267.55 670.00 267.00 C 678.31 267.03 686.86 266.89 694.67 263.68 C 707.38 258.87 717.16 247.55 720.51 234.43 C 725.97 212.87 730.29 191.05 734.51 169.22 C 736.32 159.76 735.11 149.01 728.33 141.69 C 721.52 134.07 710.81 131.80 700.99 132.12 C 656.77 132.12 612.52 131.69 568.32 132.32 Z" />
<path fill="#ffffff" opacity="1.00" d=" M 806.34 131.34 C 815.51 130.25 824.76 130.83 833.97 130.75 C 840.56 130.67 848.38 132.92 851.15 139.55 C 854.71 146.23 851.46 153.71 850.24 160.56 C 845.41 184.07 840.00 207.48 835.52 231.06 C 834.46 234.81 839.41 234.91 841.92 234.97 C 873.63 235.03 905.34 234.94 937.05 235.02 C 944.07 234.87 952.13 237.60 955.24 244.39 C 958.46 252.99 952.28 261.81 944.91 265.80 C 935.63 270.29 925.05 269.17 915.08 269.49 C 891.71 270.82 868.37 268.59 845.00 269.29 C 826.66 269.02 808.32 269.36 789.98 269.05 C 777.09 268.59 762.58 263.98 756.49 251.61 C 752.54 244.08 752.56 235.21 754.41 227.09 C 758.76 206.53 762.89 185.91 767.72 165.46 C 772.21 147.67 788.19 133.69 806.34 131.34 M 807.39 132.48 C 789.26 134.37 773.17 148.19 768.89 165.95 C 764.12 186.48 759.89 207.13 755.61 227.76 C 753.69 236.92 754.07 247.30 759.92 255.04 C 767.98 265.74 782.47 267.84 795.00 267.86 C 837.67 267.64 880.32 268.27 922.99 268.12 C 930.73 268.04 938.97 267.82 945.90 263.94 C 952.66 260.05 957.16 251.02 953.50 243.60 C 950.65 238.03 943.79 236.62 938.07 236.47 C 906.05 236.33 874.02 236.48 842.00 236.31 C 838.32 236.53 832.74 234.96 834.30 230.11 C 839.61 203.94 845.33 177.83 850.80 151.69 C 851.85 146.70 851.84 140.82 848.14 136.87 C 844.40 132.61 838.34 132.05 833.04 132.06 C 824.49 132.12 815.91 131.68 807.39 132.48 Z" />
<path fill="#ffffff" opacity="1.00" d=" M 1019.39 131.73 C 1037.10 129.58 1055.18 131.02 1073.03 130.91 C 1082.39 130.42 1090.88 139.62 1088.62 148.97 C 1081.46 184.15 1073.90 219.27 1066.15 254.33 C 1064.98 261.68 1058.72 268.00 1051.07 268.03 C 1036.73 268.62 1022.36 268.11 1008.00 268.29 C 1002.07 268.15 995.22 268.73 990.50 264.42 C 986.48 261.01 985.16 255.39 986.30 250.36 C 993.07 215.85 1000.72 181.51 1007.92 147.09 C 1009.20 140.66 1012.18 133.20 1019.39 131.73 M 1022.31 132.36 C 1015.51 132.55 1010.77 138.47 1009.75 144.79 C 1002.37 179.49 994.84 214.16 987.83 248.93 C 986.93 253.34 986.74 258.47 989.87 262.09 C 993.19 266.32 998.97 266.93 1003.98 266.94 C 1017.65 267.00 1031.32 266.93 1045.00 266.97 C 1049.75 266.86 1054.95 266.98 1059.09 264.24 C 1062.99 261.52 1064.32 256.65 1065.37 252.27 C 1072.80 217.86 1080.32 183.47 1087.30 148.98 C 1089.40 140.88 1083.06 132.47 1074.70 132.33 C 1057.26 131.89 1039.75 131.76 1022.31 132.36 Z" />
<path fill="#ffffff" opacity="1.00" d=" M 1360.36 131.75 C 1374.39 129.41 1388.81 131.15 1403.00 130.71 C 1410.78 130.94 1420.25 129.43 1426.06 135.92 C 1430.19 140.18 1430.33 146.62 1428.91 152.05 C 1421.51 186.09 1414.52 220.22 1407.15 254.26 C 1406.01 261.65 1399.70 267.99 1392.04 268.06 C 1378.37 268.59 1364.67 268.11 1351.00 268.30 C 1344.42 268.34 1337.10 268.57 1331.66 264.25 C 1326.86 260.16 1325.97 253.21 1327.29 247.34 C 1334.41 213.82 1341.64 180.32 1348.68 146.78 C 1350.12 140.43 1353.23 133.17 1360.36 131.75 M 1364.29 132.23 C 1357.22 132.21 1351.80 137.86 1350.62 144.55 C 1343.15 178.32 1336.18 212.20 1328.88 246.01 C 1327.75 251.29 1327.24 257.56 1331.05 261.92 C 1334.69 266.19 1340.68 266.94 1345.96 266.96 C 1359.64 266.97 1373.32 266.97 1387.01 266.95 C 1391.68 266.81 1396.90 266.86 1400.77 263.81 C 1404.60 260.54 1405.57 255.31 1406.67 250.65 C 1413.63 217.92 1420.43 185.15 1427.53 152.45 C 1428.59 147.02 1429.20 140.35 1424.86 136.14 C 1420.40 131.85 1413.74 132.10 1408.00 132.03 C 1393.43 132.16 1378.84 131.72 1364.29 132.23 Z" />
<path fill="#ffffff" opacity="1.00" d=" M 1530.49 135.70 C 1560.65 134.98 1590.83 135.67 1621.00 135.43 C 1627.61 135.54 1634.73 134.96 1640.76 138.21 C 1645.17 140.79 1645.88 146.38 1646.17 151.01 C 1647.70 183.00 1648.95 215.01 1650.98 246.98 C 1650.96 251.00 1651.73 255.64 1649.04 259.03 C 1646.66 262.04 1642.50 262.15 1639.00 262.21 C 1622.65 262.22 1606.29 262.46 1589.95 262.23 C 1586.75 262.35 1583.52 260.38 1582.88 257.12 C 1581.13 248.55 1583.05 239.60 1580.99 231.07 C 1580.18 227.53 1576.00 227.31 1573.07 227.28 C 1560.04 227.30 1547.00 227.52 1533.98 227.20 C 1528.79 226.92 1523.12 228.68 1520.33 233.35 C 1515.98 240.86 1512.85 249.02 1508.62 256.59 C 1506.08 260.99 1500.79 262.57 1496.00 262.37 C 1481.00 262.08 1466.00 262.30 1451.01 262.24 C 1447.80 262.04 1443.84 262.15 1441.65 259.38 C 1439.87 255.76 1441.97 251.75 1443.41 248.37 C 1456.80 220.79 1469.80 193.00 1483.62 165.63 C 1492.63 148.27 1510.97 136.61 1530.49 135.70 M 1563.34 158.41 C 1559.01 159.24 1554.54 161.41 1552.68 165.64 C 1547.42 176.12 1542.22 186.67 1537.56 197.44 C 1535.96 200.15 1537.19 204.05 1540.65 204.22 C 1550.40 205.23 1560.25 204.16 1570.05 204.54 C 1573.40 204.70 1578.63 204.49 1578.92 200.04 C 1579.07 189.77 1577.72 179.52 1577.36 169.25 C 1577.00 166.29 1577.41 162.91 1575.58 160.39 C 1572.30 157.44 1567.39 157.73 1563.34 158.41 Z" />
<path fill="#ffffff" opacity="1.00" d=" M 326.48 136.67 C 337.96 135.63 349.49 136.13 361.00 136.04 C 391.66 135.95 422.33 135.22 452.99 135.60 C 461.71 135.85 470.39 137.59 478.64 140.39 C 485.84 142.98 489.97 150.60 490.15 157.98 C 490.94 175.21 486.85 192.65 478.88 207.92 C 472.15 220.07 458.45 227.19 444.75 227.36 C 414.84 227.84 384.92 227.20 355.00 227.59 C 350.55 227.65 345.68 229.40 343.54 233.58 C 340.08 240.55 340.64 248.89 336.69 255.68 C 334.12 260.13 329.17 262.90 324.06 263.06 C 309.39 263.78 294.67 263.75 279.99 263.15 C 276.38 262.98 271.99 262.50 269.99 259.03 C 268.04 255.32 269.28 250.96 269.93 247.06 C 275.74 219.62 280.85 192.01 287.79 164.84 C 292.48 147.89 309.45 137.21 326.48 136.67 M 365.35 159.46 C 361.46 159.74 358.23 162.58 357.25 166.32 C 354.49 175.32 352.93 184.64 350.80 193.81 C 350.31 196.67 349.15 200.16 351.37 202.60 C 353.85 205.14 357.76 204.56 360.99 204.74 C 375.87 204.54 390.78 205.23 405.64 204.51 C 410.26 204.42 413.36 200.41 414.19 196.19 C 416.51 186.18 419.38 176.19 420.31 165.93 C 421.09 161.06 416.20 158.42 411.99 158.65 C 396.45 158.31 380.86 158.57 365.35 159.46 Z" />
<path fill="#ffffff" opacity="1.00" d=" M 1138.48 136.75 C 1149.27 135.46 1160.17 136.16 1171.01 135.93 C 1213.35 136.00 1255.70 135.45 1298.05 135.94 C 1301.06 136.13 1305.14 136.29 1306.69 139.37 C 1307.39 143.47 1303.99 146.75 1301.18 149.21 C 1268.54 176.60 1235.54 203.56 1202.97 231.03 C 1200.90 233.02 1198.10 235.31 1198.43 238.50 C 1200.03 240.92 1203.35 240.70 1205.92 240.96 C 1230.95 241.17 1256.00 240.77 1281.03 241.21 C 1287.44 240.85 1291.61 248.22 1288.79 253.74 C 1285.17 261.44 1275.62 263.08 1267.98 263.35 C 1219.65 263.47 1171.33 263.61 1123.00 263.44 C 1117.33 263.15 1110.78 263.62 1106.19 259.68 C 1105.24 254.96 1109.16 251.16 1112.44 248.38 C 1145.00 221.68 1177.28 194.62 1209.63 167.65 C 1211.37 165.83 1214.52 163.55 1213.38 160.70 C 1210.65 158.16 1206.53 158.43 1203.07 158.14 C 1180.02 157.77 1156.96 158.10 1133.91 157.91 C 1129.04 157.99 1122.30 156.04 1122.49 150.03 C 1122.22 141.57 1131.00 136.85 1138.48 136.75 Z" />
<path fill="#ffffff" opacity="1.00" d=" M 565.34 137.38 C 569.85 136.66 574.44 136.64 579.00 136.67 C 620.32 136.82 661.65 136.71 702.98 136.77 C 711.15 136.76 720.09 138.92 725.49 145.51 C 731.07 152.20 731.40 161.60 729.69 169.78 C 725.53 190.93 721.38 212.11 716.08 233.02 C 713.28 244.21 705.38 254.14 694.68 258.68 C 687.91 261.82 680.34 262.32 672.99 262.29 C 632.00 262.95 591.00 263.15 550.01 263.41 C 540.72 262.94 530.57 261.04 523.64 254.36 C 516.92 247.43 517.22 236.87 518.91 228.03 C 523.09 207.15 527.19 186.21 532.70 165.64 C 536.85 150.81 550.02 139.27 565.34 137.38 M 612.37 158.50 C 606.64 158.43 602.44 163.23 601.62 168.60 C 596.98 189.72 592.39 210.87 588.31 232.10 C 587.05 236.53 590.57 240.79 595.10 240.70 C 608.07 241.33 621.09 240.90 634.08 240.97 C 639.52 241.28 645.45 238.56 646.83 232.88 C 652.68 211.75 656.57 190.12 660.35 168.54 C 661.38 164.63 660.62 158.96 655.64 158.55 C 641.26 157.57 626.76 157.87 612.37 158.50 Z" />
<path fill="#ffffff" opacity="1.00" d=" M 805.39 137.51 C 813.85 136.17 822.46 136.87 831.00 136.71 C 835.49 136.88 840.80 136.28 844.36 139.64 C 847.22 142.34 846.97 146.65 846.35 150.20 C 840.86 176.78 834.92 203.28 829.64 229.89 C 828.04 236.62 834.79 241.32 840.91 240.92 C 873.30 241.23 905.70 240.87 938.09 241.09 C 942.28 241.29 947.76 241.86 949.63 246.28 C 951.87 253.12 946.05 259.96 939.64 261.64 C 929.02 264.56 917.86 263.12 907.00 263.56 C 873.33 263.23 839.67 263.26 806.00 263.18 C 794.60 263.11 782.56 264.11 771.98 259.00 C 765.90 256.26 761.31 250.61 759.92 244.09 C 757.98 235.71 760.49 227.27 762.15 219.07 C 765.74 201.81 769.36 184.54 773.32 167.36 C 776.93 152.21 790.06 140.10 805.39 137.51 Z" />
<path fill="#ffffff" opacity="1.00" d=" M 1020.32 137.49 C 1035.10 135.82 1050.12 137.07 1064.99 136.73 C 1069.97 136.95 1075.64 135.92 1079.96 139.03 C 1083.22 141.46 1083.28 145.98 1082.52 149.60 C 1075.17 184.44 1067.93 219.31 1060.12 254.05 C 1059.41 258.52 1055.75 262.26 1051.05 262.06 C 1035.71 262.47 1020.35 262.22 1005.01 262.27 C 1001.14 262.09 996.48 262.54 993.62 259.39 C 991.07 256.45 991.99 252.26 992.57 248.79 C 999.40 215.07 1006.72 181.46 1013.83 147.80 C 1014.72 143.85 1015.83 138.74 1020.32 137.49 Z" />
<path fill="#ffffff" opacity="1.00" d=" M 1361.34 137.49 C 1374.76 135.67 1388.46 137.19 1402.00 136.75 C 1407.91 136.98 1414.16 135.93 1419.79 138.16 C 1424.66 140.50 1423.90 146.75 1423.04 151.14 C 1415.74 184.88 1408.74 218.68 1401.51 252.44 C 1400.75 256.88 1398.20 261.98 1393.01 261.96 C 1378.03 262.74 1363.00 262.10 1348.00 262.27 C 1343.53 262.14 1338.23 262.62 1334.81 259.17 C 1331.88 255.97 1332.69 251.24 1333.35 247.35 C 1340.46 214.10 1347.48 180.83 1354.63 147.59 C 1355.53 143.65 1356.92 138.73 1361.34 137.49 Z" />
<path fill="#ffffff" opacity="1.00" d=" M 372.02 163.66 C 386.61 163.69 401.31 162.07 415.83 163.92 C 414.88 174.93 412.01 185.69 409.28 196.36 C 408.48 200.74 403.31 199.99 400.00 200.14 C 384.85 199.92 369.69 200.29 354.55 199.83 C 356.48 189.01 358.68 178.19 361.69 167.63 C 362.80 163.00 368.42 163.97 372.02 163.66 M 370.02 165.74 C 367.72 165.98 364.15 165.37 363.56 168.41 C 360.72 178.11 358.94 188.09 356.78 197.96 C 373.43 197.89 390.11 198.50 406.75 197.76 C 409.76 187.15 412.27 176.35 413.82 165.43 C 399.23 164.69 384.61 165.47 370.02 165.74 Z" />
<path fill="#ffffff" opacity="1.00" d=" M 605.29 173.22 C 606.21 169.37 606.75 163.30 611.96 163.24 C 626.64 162.37 641.41 162.46 656.11 163.18 C 653.38 185.44 648.39 207.41 643.13 229.21 C 642.58 233.32 639.44 236.78 635.02 236.26 C 620.97 236.15 606.85 236.94 592.84 235.74 C 595.64 214.69 601.21 194.07 605.29 173.22 M 607.86 170.95 C 603.36 191.95 598.76 212.95 594.70 234.05 C 608.47 234.52 622.29 234.43 636.06 234.16 C 639.87 234.42 640.84 230.33 641.54 227.44 C 646.60 206.79 650.80 185.93 654.14 164.93 C 640.12 164.71 626.05 164.27 612.06 165.24 C 609.00 165.23 608.50 168.66 607.86 170.95 Z" />
<path fill="#ffffff" opacity="1.00" d=" M 1556.85 167.68 C 1559.72 162.27 1566.90 162.38 1572.18 163.05 C 1573.14 175.30 1573.89 187.57 1574.44 199.84 C 1563.47 199.82 1552.51 200.13 1541.55 199.83 C 1546.33 188.96 1551.46 178.25 1556.85 167.68 M 1558.28 169.26 C 1553.51 178.72 1548.93 188.28 1544.59 197.95 C 1553.86 197.99 1563.14 197.89 1572.42 197.86 C 1571.68 186.72 1571.23 175.56 1570.19 164.44 C 1565.98 164.90 1560.22 164.59 1558.28 169.26 Z" />
</g>
</svg>
