<!-- switchusers.svg clean -->
<?xml version="1.0" encoding="UTF-8"?>
<svg xmlns="http://www.w3.org/2000/svg"
     viewBox="0 0 512 512">

  <circle class="app-top-action-ring"
          cx="256" cy="256" r="210" />

<g transform="translate(256 256) scale(0.57) translate(-512 -512) translate(-7 11)"
   fill="currentColor"
   style="color: var(--subtext);">

    <path d="M579 221c4-3 11-1 13 4q3 6-2 10l-28 21 27 5q30 6 57 19 36 19 66 48a267 267 0 0 1 78 192q0 6-4 9-5 3-9 0-4-4-4-9 0-34-9-67-18-68-68-116a225 225 0 0 0-136-63l26 27q2 4 2 10c-2 5-11 7-15 2l-38-39-5-6q-2-7 2-11zM239 446c5-3 12 1 13 7a273 273 0 0 0 24 114q23 50 66 85 54 43 122 51l-22-23q-6-3-6-10c0-7 9-11 14-6l16 16 21 21q4 4 7 8 2 7-3 10l-19 15-26 20c-4 3-11 3-13-2q-4-5 0-10l28-22q-23-2-46-9-56-18-99-58-35-33-55-77-28-59-27-123 0-5 5-7"/>

    <path d="M409 193a64 64 0 1 1-3 126 64 64 0 0 1-43-96q16-26 46-30M370 326q6-2 10 0 18 7 37 7 18 1 35-6 7-3 15-1 17 3 31 13 31 19 40 55 2 13 1 25c1 10-8 19-18 19H312q-11 0-16-10-2-7-1-15c-2-27 13-53 34-69q18-14 41-18M642 453q13-2 25 0 28 7 43 31 15 22 8 49a66 66 0 0 1-106 34 65 65 0 0 1 13-109z"/>

    <path d="M605 588h10q15 6 31 8 14 1 28-2l21-6a93 93 0 0 1 84 97c0 10-9 19-19 19H559q-9 1-19-2-11-6-11-19v-18q5-30 26-51 22-20 50-26"/>

  </g>

</svg>