<?xml version="1.0" encoding="UTF-8" ?>
<!DOCTYPE svg PUBLIC "-//W3C//DTD SVG 1.1//EN" "http://www.w3.org/Graphics/SVG/1.1/DTD/svg11.dtd">
<svg width="1024pt" height="1024pt" viewBox="0 0 1024 1024" version="1.1" xmlns="http://www.w3.org/2000/svg">
<g id="#2a9bffff">
<path fill="#2a9bff" opacity="1.00" d=" M 370.50 170.73 C 377.59 169.44 384.95 170.10 391.82 172.18 C 399.57 174.82 406.27 179.63 413.31 183.66 C 446.14 203.22 479.12 222.54 511.95 242.12 C 517.61 245.58 522.53 250.28 526.21 255.81 C 535.45 270.13 534.16 290.74 522.18 303.13 C 513.21 312.18 504.68 321.64 495.78 330.76 C 494.86 331.61 494.05 332.63 492.90 333.17 C 490.94 333.37 488.97 333.27 487.01 333.28 C 413.33 333.24 339.65 333.29 265.97 333.27 C 263.38 333.68 261.82 331.38 260.18 329.83 C 251.79 321.54 244.09 312.59 235.77 304.23 C 228.77 297.02 224.65 287.06 224.86 276.99 C 224.47 266.62 228.80 256.37 235.94 248.95 C 239.21 245.81 242.89 243.12 246.78 240.80 C 280.87 220.13 315.16 199.79 349.32 179.24 C 355.70 175.00 362.89 171.89 370.50 170.73 M 372.49 229.68 C 368.67 231.98 365.91 235.73 361.95 237.86 C 357.11 241.12 350.81 240.85 345.96 244.03 C 341.91 247.01 341.51 252.49 342.02 257.09 C 343.77 270.88 351.11 284.36 363.04 291.87 C 369.95 296.29 378.92 297.79 386.67 294.80 C 395.44 291.30 402.56 284.28 406.93 275.99 C 410.58 269.25 413.01 261.68 413.08 253.98 C 413.30 249.13 410.38 243.95 405.60 242.48 C 401.36 241.12 396.93 240.21 392.94 238.15 C 389.29 236.24 386.39 233.24 383.18 230.72 C 380.26 228.25 375.86 228.14 372.49 229.68 Z" />
<path fill="#2a9bff" opacity="1.00" d=" M 427.06 370.93 C 450.18 368.55 473.47 365.12 495.27 356.74 C 494.68 365.97 495.43 375.26 494.20 384.45 C 491.43 415.54 476.64 445.53 453.00 466.04 C 444.32 473.64 434.76 480.34 424.27 485.20 C 408.81 491.96 391.89 495.61 374.99 494.95 C 354.24 494.35 333.61 488.13 316.14 476.87 C 311.12 473.68 306.55 469.86 301.94 466.12 C 281.28 447.79 267.19 422.21 262.77 394.94 C 260.24 382.55 261.20 369.86 260.98 357.31 C 276.86 362.09 292.96 366.40 309.46 368.38 C 317.26 369.44 325.09 370.33 332.94 370.97 C 339.98 371.05 346.96 372.22 354.01 372.06 C 371.99 372.64 390.00 372.52 407.99 372.08 C 414.37 372.18 420.69 371.10 427.06 370.93 Z" />
<path fill="#2a9bff" opacity="1.00" d=" M 543.19 439.17 C 549.23 432.42 559.62 430.18 567.89 433.89 C 575.93 437.00 581.26 445.49 581.09 454.03 C 581.34 464.03 581.31 474.05 581.21 484.05 C 640.03 484.24 698.85 484.01 757.67 484.19 C 757.64 474.15 757.45 464.10 757.75 454.06 C 757.73 444.50 764.74 435.52 773.91 432.99 C 783.49 429.74 794.57 435.13 799.04 443.96 C 801.23 447.92 801.69 452.54 801.71 457.00 C 801.72 466.04 801.73 475.08 801.81 484.12 C 811.36 484.33 821.00 483.45 830.44 485.38 C 844.07 487.66 856.62 494.99 866.16 504.87 C 875.86 515.80 881.22 530.42 881.17 545.02 C 881.21 551.98 881.38 558.94 881.01 565.90 C 741.67 566.07 602.33 565.88 462.99 565.99 C 461.50 565.83 459.83 566.28 458.50 565.51 C 457.72 564.16 458.15 562.48 458.00 561.01 C 458.08 554.31 457.91 547.62 458.08 540.92 C 458.84 531.36 461.87 522.00 466.78 513.76 C 470.46 507.65 475.52 502.50 480.92 497.87 C 492.01 489.22 505.94 484.34 520.00 484.05 C 525.72 484.07 531.44 484.07 537.17 484.11 C 537.25 474.39 537.22 464.66 537.21 454.94 C 537.29 449.22 538.83 443.15 543.19 439.17 Z" />
<path fill="#2a9bff" opacity="1.00" d=" M 294.09 515.80 C 304.11 513.82 314.92 512.39 324.67 516.33 C 331.89 519.38 339.24 522.17 346.79 524.33 C 368.70 530.18 392.34 530.10 413.97 523.10 C 419.02 521.37 424.02 519.51 429.08 517.81 C 428.20 523.24 426.49 528.49 425.87 533.97 C 424.85 539.93 425.18 545.99 425.16 552.01 C 425.26 611.01 425.16 670.01 425.21 729.00 C 425.18 733.94 425.44 738.90 424.81 743.81 C 419.21 744.06 413.60 743.94 407.99 743.96 C 336.33 743.93 264.67 743.94 193.01 743.96 C 187.21 744.19 181.24 743.66 175.94 741.16 C 169.03 737.69 163.29 731.73 160.60 724.43 C 158.58 718.87 157.95 712.88 158.00 706.99 C 158.04 695.97 158.00 684.95 158.03 673.93 C 159.33 650.91 165.49 628.08 176.83 607.95 C 188.20 586.98 203.44 568.07 221.73 552.74 C 235.58 541.15 250.95 531.23 267.81 524.59 C 276.23 520.74 285.10 517.97 294.09 515.80 Z" />
<path fill="#2a9bff" opacity="1.00" d=" M 459.11 595.16 C 461.73 594.92 464.37 595.06 467.00 595.05 C 594.00 595.03 721.00 595.05 848.00 595.04 C 858.96 595.08 869.92 594.97 880.88 595.12 C 881.34 602.41 881.06 609.71 881.16 617.00 C 881.15 669.00 881.23 721.00 881.18 773.00 C 881.46 783.98 878.58 794.92 873.53 804.63 C 865.11 820.02 851.36 832.53 835.01 838.99 C 825.74 842.42 815.88 844.41 805.98 844.13 C 715.65 844.22 625.33 844.18 535.01 844.15 C 510.83 844.85 486.80 832.98 472.25 813.73 C 462.39 801.13 457.53 784.93 458.03 769.00 C 458.05 712.31 458.06 655.63 458.01 598.95 C 458.12 597.62 457.69 595.92 459.11 595.16 M 546.26 641.27 C 540.85 642.30 536.99 647.52 536.99 652.93 C 536.91 662.94 536.99 672.96 536.94 682.98 C 536.86 687.00 537.49 691.51 540.67 694.33 C 543.83 697.65 548.69 698.05 553.01 698.06 C 562.35 698.04 571.69 698.10 581.03 698.03 C 585.18 698.01 589.72 696.71 592.28 693.21 C 594.59 690.38 594.71 686.51 594.74 683.03 C 594.62 672.72 594.81 662.41 594.67 652.10 C 594.63 646.07 589.00 641.00 583.08 641.01 C 572.72 640.85 562.36 641.03 552.01 640.94 C 550.09 640.96 548.14 640.85 546.26 641.27 M 650.39 641.42 C 647.65 642.35 644.89 643.84 643.48 646.48 C 641.28 649.90 641.77 654.13 641.63 658.01 C 641.73 667.34 641.46 676.68 641.80 686.02 C 641.86 690.92 645.34 695.55 650.02 697.01 C 652.57 697.93 655.31 698.05 658.00 698.05 C 667.01 698.02 676.01 698.07 685.02 698.04 C 688.72 698.06 692.77 697.20 695.34 694.33 C 698.09 691.69 698.89 687.71 698.89 684.05 C 698.86 675.37 698.84 666.69 698.91 658.01 C 698.91 655.14 699.20 652.20 698.35 649.42 C 697.00 644.56 692.16 640.82 687.07 641.00 C 676.72 640.91 666.36 640.98 656.01 640.93 C 654.13 640.98 652.19 640.82 650.39 641.42 M 755.23 641.17 C 749.64 642.07 745.84 647.42 745.96 652.94 C 745.94 663.65 745.94 674.36 745.97 685.07 C 745.91 689.21 747.89 693.35 751.29 695.77 C 754.76 697.98 759.03 697.99 763.01 698.06 C 772.01 698.06 781.02 698.04 790.02 698.04 C 794.19 698.07 798.68 696.69 801.35 693.32 C 803.55 690.76 804.17 687.26 804.12 683.98 C 804.12 673.63 804.21 663.28 804.06 652.93 C 804.14 648.58 801.69 644.15 797.68 642.30 C 794.07 640.46 789.90 641.07 786.00 640.95 C 775.75 641.11 765.47 640.63 755.23 641.17 M 545.40 733.59 C 540.41 734.93 536.87 739.79 536.98 744.93 C 536.91 755.62 536.99 766.32 536.94 777.01 C 536.75 780.51 538.18 783.95 540.45 786.57 C 542.97 788.97 546.53 790.12 549.99 790.06 C 559.65 790.14 569.32 790.08 578.99 790.11 C 581.73 790.05 584.60 790.21 587.17 789.07 C 590.39 787.88 592.58 784.92 593.83 781.85 C 594.72 778.64 594.68 775.30 594.70 772.01 C 594.65 763.99 594.70 755.97 594.68 747.96 C 594.66 744.68 594.44 741.20 592.64 738.36 C 590.37 734.87 586.19 732.87 582.07 732.97 C 572.05 732.92 562.03 732.93 552.02 732.93 C 549.80 732.97 547.52 732.86 545.40 733.59 M 650.38 733.42 C 646.43 734.67 642.88 737.83 642.01 741.98 C 641.42 746.62 641.75 751.32 641.66 756.00 C 641.77 763.68 641.44 771.37 641.91 779.05 C 642.20 784.79 647.15 789.78 652.92 789.99 C 662.94 790.25 672.96 790.03 682.98 790.12 C 685.67 790.05 688.49 790.27 691.03 789.16 C 695.94 787.42 699.04 782.19 698.87 777.07 C 698.89 767.71 698.79 758.36 698.88 749.00 C 698.91 745.59 698.81 741.99 697.01 738.98 C 694.69 734.76 689.64 732.81 685.01 732.95 C 675.34 732.94 665.67 732.94 656.00 732.93 C 654.12 732.97 652.19 732.86 650.38 733.42 Z" />
</g>
</svg>
